<?xml version="1.0" encoding="utf-8"?>
<svg version="1.1" xmlns:xlink="http://www.w3.org/1999/xlink" width="40px" height="40px" xmlns="http://www.w3.org/2000/svg">
  <g transform="matrix(1 0 0 1 -525 -1030 )">
    <path d="M 525 1030  L 565 1030  L 565 1070  L 525 1070  L 525 1030  " fill-rule="nonzero" fill="#cccccc" stroke="none" />
    <path d="M 528 1033  L 562 1033  L 562 1067  L 528 1067  L 528 1033  " fill-rule="nonzero" fill="#ffffff" stroke="none" />
    <path d="M 548.8 1042  C 547.12 1042  545.8 1040.68  545.8 1039  C 545.8 1037.32  547.12 1036  548.8 1036  C 550.48 1036  551.8 1037.32  551.8 1039  C 551.8 1040.68  550.48 1042  548.8 1042  " fill-rule="nonzero" fill="#cccccc" stroke="none" />
    <path d="M 529 1066  L 529 1048.4  L 537 1040.4  L 548.2 1046.8  L 554.6 1045.2  L 561 1046.8  L 561 1066  L 529 1066  " fill-rule="nonzero" fill="#169bd5" stroke="none" />
  </g>
</svg>