<?xml version="1.0" encoding="utf-8"?>
<svg version="1.1" xmlns:xlink="http://www.w3.org/1999/xlink" width="8px" height="8px" xmlns="http://www.w3.org/2000/svg">
  <g transform="matrix(1 0 0 1 -1234 -1171 )">
    <path d="M 1238 1171  C 1240.24 1171  1242 1172.76  1242 1175  C 1242 1177.24  1240.24 1179  1238 1179  C 1235.76 1179  1234 1177.24  1234 1175  C 1234 1172.76  1235.76 1171  1238 1171  Z " fill-rule="nonzero" fill="#333333" stroke="none" />
    <path d="M 1238 1171.5  C 1239.96 1171.5  1241.5 1173.04  1241.5 1175  C 1241.5 1176.96  1239.96 1178.5  1238 1178.5  C 1236.04 1178.5  1234.5 1176.96  1234.5 1175  C 1234.5 1173.04  1236.04 1171.5  1238 1171.5  Z " stroke-width="1" stroke="#797979" fill="none" />
  </g>
</svg>