<?xml version="1.0" encoding="utf-8"?>
<svg version="1.1" xmlns:xlink="http://www.w3.org/1999/xlink" width="50px" height="40px" xmlns="http://www.w3.org/2000/svg">
  <g transform="matrix(1 0 0 1 -915 -1662 )">
    <path d="M 15.2083333333334 8.125  C 16.1805555555555 9.09722222222217  16.6666666666666 10.2777777777778  16.6666666666666 11.6666666666667  C 16.6666666666666 13.0555555555554  16.1805555555555 14.2361111111109  15.2083333333334 15.2083333333333  C 14.2361111111112 16.1805555555554  13.0555555555554 16.6666666666667  11.6666666666666 16.6666666666667  C 10.2777777777777 16.6666666666667  9.09722222222206 16.1805555555554  8.125 15.2083333333333  C 7.15277777777771 14.2361111111109  6.66666666666663 13.0555555555554  6.66666666666663 11.6666666666667  C 6.66666666666663 10.2777777777778  7.15277777777771 9.09722222222217  8.125 8.125  C 9.09722222222206 7.15277777777783  10.2777777777777 6.66666666666674  11.6666666666666 6.66666666666674  C 13.0555555555554 6.66666666666674  14.2361111111112 7.15277777777783  15.2083333333334 8.125  Z M 32.5 10.8333333333333  L 43 21.6666666666667  L 43 33  L 31.3000003882145 33  L 6.66666666666663 33.3333333333333  L 6.66666666666663 28.3333333333333  L 15 20  L 19.1666666666666 24.1666666666667  L 32.5 10.8333333333333  Z M 46.4192708333333 3.58072916666674  C 46.2543402777778 3.41579861111086  46.0590277777778 3.33333333333326  45.8333333333333 4  L 4.16666666666663 4  C 3.94097222222206 3.33333333333326  3.74565972222206 3.41579861111086  3.58072916666663 3.58072916666674  C 3.41579861111109 3.74565972222217  3.33333333333337 3.94097222222217  4 4.16666666666674  L 4 35.8333333333333  C 3.33333333333337 36.0590277777778  3.41579861111109 36.2543402777778  3.58072916666663 36.4192708333333  C 3.74565972222206 36.5842013888891  3.94097222222206 36.6666666666667  4.16666666666663 36  L 37.4999999925641 36  L 45.8333333333333 36.6666666666667  C 46.0590277777778 36.6666666666667  46.2543402777778 36.5842013888891  46.4192708333333 36.4192708333333  C 46.5842013888889 36.2543402777778  46.6666666666666 36.0590277777778  46 35.8333333333333  L 46 4.16666666666674  C 46.6666666666666 3.94097222222217  46.5842013888889 3.74565972222217  46.4192708333333 3.58072916666674  Z M 48.7760416666666 1.22395833333326  C 49.5920138888887 2.03993055555543  50 3.02083333333326  50 4.16666666666674  L 50 35.8333333333333  C 50 36.9791666666667  49.5920138888887 37.9600694444446  48.7760416666666 38.7760416666667  C 47.9600694444446 39.5920138888891  46.9791666666666 40  45.8333333333333 40  L 4.16666666666663 40  C 3.02083333333337 40  2.03993055555543 39.5920138888891  1.22395833333337 38.7760416666667  C 0.407986111111086 37.9600694444446  0 36.9791666666667  0 35.8333333333333  L 0 4.16666666666674  C 0 3.02083333333326  0.407986111111086 2.03993055555543  1.22395833333337 1.22395833333326  C 2.03993055555543 0.407986111110858  3.02083333333337 0  4.16666666666663 0  L 45.8333333333333 0  C 46.9791666666666 0  47.9600694444446 0.407986111110858  48.7760416666666 1.22395833333326  Z " fill-rule="nonzero" fill="#cccccc" stroke="none" transform="matrix(1 0 0 1 915 1662 )" />
  </g>
</svg>