<?xml version="1.0" encoding="utf-8"?>
<svg version="1.1" xmlns:xlink="http://www.w3.org/1999/xlink" width="27px" height="23px" xmlns="http://www.w3.org/2000/svg">
  <g transform="matrix(1 0 0 1 -722 -1700 )">
    <path d="M 12.5919282511211 17.25  L 13.4394618834081 17.25  L 15.195067264574 15.3551136363636  L 12.8946188340807 12.8721590909091  L 11.1390134529148 14.7670454545455  L 11.1390134529148 15.6818181818182  L 12.5919282511211 15.6818181818182  L 12.5919282511211 17.25  Z M 20.0835201793722 6.02769886363636  C 20.2550448430493 5.84256628787879  20.2600896860987 5.66287878787879  20.0986547085202 5.48863636363636  C 19.9372197309417 5.31439393939394  19.7707399103139 5.31983901515151  19.5992152466368 5.50497159090909  L 14.3021300448431 11.2223011363636  C 14.1306053811659 11.4074337121212  14.1255605381166 11.5871212121212  14.2869955156951 11.7613636363636  C 14.4484304932735 11.9356060606061  14.6149103139013 11.9301609848485  14.7864349775785 11.7450284090909  L 20.0835201793722 6.02769886363636  Z M 21.0067264573991 14.7180397727273  C 21.2085201793722 14.8051609848485  21.3094170403587 14.9630681818182  21.3094170403587 15.1917613636364  L 21.3094170403587 18.2954545454545  C 21.3094170403587 19.5913825757576  20.8831278026906 20.6994554924242  20.0305493273543 21.6196732954545  C 19.1779708520179 22.5398910984848  18.1513452914798 23  16.9506726457399 23  L 4.35874439461883 23  C 3.15807174887892 23  2.13144618834081 22.5398910984848  1.27886771300448 21.6196732954545  C 0.426289237668161 20.6994554924242  0 19.5913825757576  0 18.2954545454545  L 0 4.70454545454546  C 0 3.40861742424242  0.426289237668161 2.30054450757576  1.27886771300448 1.38032670454546  C 2.13144618834081 0.460108901515149  3.15807174887892 0  4.35874439461883 0  L 16.9506726457399 0  C 17.5863228699552 0  18.1765695067265 0.136126893939393  18.7214125560538 0.408380681818181  C 18.8727578475336 0.484611742424241  18.9635650224215 0.609848484848484  18.9938340807175 0.784090909090908  C 19.0241031390135 0.969223484848484  18.9786995515695 1.12713068181818  18.8576233183856 1.2578125  L 18.1160313901345 2.05823863636364  C 17.9747757847534 2.21070075757576  17.8133408071749 2.25426136363636  17.6317264573991 2.18892045454546  C 17.39966367713 2.12357954545454  17.1726457399103 2.09090909090909  16.9506726457399 2  L 4.35874439461883 2  C 3.69282511210762 2.09090909090909  3.12275784753363 2.34682765151515  2.64854260089686 2.85866477272727  C 2.17432735426009 3.37050189393939  1.9372197309417 3.98579545454546  2 4.70454545454546  L 2 18.2954545454545  C 1.9372197309417 19.0142045454545  2.17432735426009 19.6294981060606  2.64854260089686 20.1413352272727  C 3.12275784753363 20.6531723484848  3.69282511210762 20.9090909090909  4.35874439461883 21  L 16.9506726457399 21  C 17.6165919282511 20.9090909090909  18.1866591928251 20.6531723484848  18.6608744394619 20.1413352272727  C 19.1350896860987 19.6294981060606  19.372197309417 19.0142045454545  19.372197309417 18.2954545454545  L 19.372197309417 16.2372159090909  C 19.372197309417 16.0956439393939  19.417600896861 15.9758522727273  19.5084080717489 15.8778409090909  L 20.4770179372197 14.8323863636364  C 20.6283632286996 14.6690340909091  20.804932735426 14.6309185606061  21.0067264573991 14.7180397727273  Z M 9.68609865470852 14.1136363636364  L 19.8565022421525 3.13636363636364  L 24.2152466367713 7.84090909090909  L 14.0448430493274 18.8181818181818  L 9.68609865470852 18.8181818181818  L 9.68609865470852 14.1136363636364  Z M 27 4.18181818181818  C 27 4.61742424242424  26.8587443946188 4.98768939393939  26.5762331838565 5.29261363636364  L 25.1838565022422 6.79545454545454  L 20.8251121076233 2.09090909090909  L 22.2174887892377 0.588068181818181  C 22.5 0.283143939393937  22.8430493273543 0.130681818181819  23.2466367713004 0.130681818181819  C 23.6502242152466 0.130681818181819  23.9932735426009 0.283143939393937  24.2757847533632 0.588068181818181  L 26.5762331838565 3.07102272727273  C 26.8587443946188 3.37594696969697  27 3.74621212121212  27 4.18181818181818  Z " fill-rule="nonzero" fill="#000000" stroke="none" transform="matrix(1 0 0 1 722 1700 )" />
  </g>
</svg>