<?xml version="1.0" encoding="utf-8"?>
<svg version="1.1" xmlns:xlink="http://www.w3.org/1999/xlink" width="12px" height="12px" viewBox="204 1655  12 12" xmlns="http://www.w3.org/2000/svg">
  <path d="M 210 1655  C 213.36 1655  216 1657.64  216 1661  C 216 1664.36  213.36 1667  210 1667  C 206.64 1667  204 1664.36  204 1661  C 204 1657.64  206.64 1655  210 1655  Z " fill-rule="nonzero" fill="#ffffff" stroke="none" />
  <path d="M 210 1655.5  C 213.08 1655.5  215.5 1657.92  215.5 1661  C 215.5 1664.08  213.08 1666.5  210 1666.5  C 206.92 1666.5  204.5 1664.08  204.5 1661  C 204.5 1657.92  206.92 1655.5  210 1655.5  Z " stroke-width="1" stroke="#797979" fill="none" />
  <path d="M 210 1664  C 208.32 1664  207 1662.68  207 1661  C 207 1659.32  208.32 1658  210 1658  C 211.68 1658  213 1659.32  213 1661  C 213 1662.68  211.68 1664  210 1664  " fill-rule="nonzero" fill="#797979" stroke="none" />
</svg>