<?xml version="1.0" encoding="utf-8"?>
<svg version="1.1" xmlns:xlink="http://www.w3.org/1999/xlink" width="12px" height="12px" viewBox="345 1655  12 12" xmlns="http://www.w3.org/2000/svg">
  <path d="M 351 1655  C 354.36 1655  357 1657.64  357 1661  C 357 1664.36  354.36 1667  351 1667  C 347.64 1667  345 1664.36  345 1661  C 345 1657.64  347.64 1655  351 1655  Z " fill-rule="nonzero" fill="#ffffff" stroke="none" />
  <path d="M 351 1655.5  C 354.08 1655.5  356.5 1657.92  356.5 1661  C 356.5 1664.08  354.08 1666.5  351 1666.5  C 347.92 1666.5  345.5 1664.08  345.5 1661  C 345.5 1657.92  347.92 1655.5  351 1655.5  Z " stroke-width="1" stroke="#797979" fill="none" />
  <path d="M 351 1664  C 349.32 1664  348 1662.68  348 1661  C 348 1659.32  349.32 1658  351 1658  C 352.68 1658  354 1659.32  354 1661  C 354 1662.68  352.68 1664  351 1664  " fill-rule="nonzero" fill="#797979" stroke="none" />
</svg>