<?xml version="1.0" encoding="utf-8"?>
<svg version="1.1" xmlns:xlink="http://www.w3.org/1999/xlink" width="12px" height="12px" viewBox="603 1655  12 12" xmlns="http://www.w3.org/2000/svg">
  <path d="M 609 1655  C 612.36 1655  615 1657.64  615 1661  C 615 1664.36  612.36 1667  609 1667  C 605.64 1667  603 1664.36  603 1661  C 603 1657.64  605.64 1655  609 1655  Z " fill-rule="nonzero" fill="#f0f0f0" stroke="none" />
  <path d="M 609 1655.5  C 612.08 1655.5  614.5 1657.92  614.5 1661  C 614.5 1664.08  612.08 1666.5  609 1666.5  C 605.92 1666.5  603.5 1664.08  603.5 1661  C 603.5 1657.92  605.92 1655.5  609 1655.5  Z " stroke-width="1" stroke="#797979" fill="none" />
  <path d="M 609 1664  C 607.32 1664  606 1662.68  606 1661  C 606 1659.32  607.32 1658  609 1658  C 610.68 1658  612 1659.32  612 1661  C 612 1662.68  610.68 1664  609 1664  " fill-rule="nonzero" fill="#797979" stroke="none" />
</svg>