<?xml version="1.0" encoding="utf-8"?>
<svg version="1.1" xmlns:xlink="http://www.w3.org/1999/xlink" width="12px" height="12px" viewBox="756 1655  12 12" xmlns="http://www.w3.org/2000/svg">
  <path d="M 762 1655  C 765.36 1655  768 1657.64  768 1661  C 768 1664.36  765.36 1667  762 1667  C 758.64 1667  756 1664.36  756 1661  C 756 1657.64  758.64 1655  762 1655  Z " fill-rule="nonzero" fill="#f0f0f0" stroke="none" />
  <path d="M 762 1655.5  C 765.08 1655.5  767.5 1657.92  767.5 1661  C 767.5 1664.08  765.08 1666.5  762 1666.5  C 758.92 1666.5  756.5 1664.08  756.5 1661  C 756.5 1657.92  758.92 1655.5  762 1655.5  Z " stroke-width="1" stroke="#797979" fill="none" />
  <path d="M 762 1664  C 760.32 1664  759 1662.68  759 1661  C 759 1659.32  760.32 1658  762 1658  C 763.68 1658  765 1659.32  765 1661  C 765 1662.68  763.68 1664  762 1664  " fill-rule="nonzero" fill="#797979" stroke="none" />
</svg>