<svg t="1639640874685" class="icon" viewBox="0 0 1024 1024" version="1.1" xmlns="http://www.w3.org/2000/svg" p-id="2041" width="150" height="150"><path d="M219.66452514 57.20284924l29.44232427-22.0580473 682.44595494 911.0286939-29.43600528 22.05804727L219.66452514 57.20284924z m0 0M707.62583756 768.02576035l-419.37334735-559.8363738c-49.78541963 44.01878334-81.31045622 108.27703195-81.31045626 179.5555884v199.16948168c-55.02885024 41.95123637-91.55972653 107.07643924-94.71412583 180.4693026h94.71412583v0.64200112h500.68380361z" fill="#AAAAAA" p-id="2042"></path><path d="M753.58705351 768.02576035h25.38811225v-0.64200112h94.70907068c-3.1493442-73.39286338-39.68527559-138.51806629-94.71412579-180.4693026V387.74497495c0-115.04331962-82.10158364-211.82120117-190.59851364-234.68301362v-4.55593332c0-52.47727483-42.93951371-95.41552475-95.41552472-95.41552472-52.47727483 0-95.41552475 42.93824991-95.41552475 95.41552472v4.55593332c-28.8748862 6.08384553-55.87937541 17.40480273-79.96579238 32.91140527l436.01229835 582.05239375zM465.91872479 958.67356149h54.34767183c83.24151482 0 152.45884313-62.94265178 162.51980995-143.57698478H303.40017866c10.05970301 80.634333 79.27197623 143.57698476 162.51854613 143.57698478z" fill="#AAAAAA" p-id="2043"></path></svg>