<?xml version="1.0" encoding="utf-8"?>
<svg version="1.1" xmlns:xlink="http://www.w3.org/1999/xlink" width="500px" height="30px" xmlns="http://www.w3.org/2000/svg">
  <defs>
    <mask fill="white" id="clip7">
      <path d="M 0 26  L 0 4  C 0 1.75999999999999  1.31147540983606 0  2.9806259314456 0  L 497.019374068554 0  C 498.688524590164 0  500 1.75999999999999  500 4  L 500 26  C 500 28.24  498.688524590164 30  497.019374068554 30  L 48.0057591755286 30  L 2.9806259314456 30  C 1.31147540983606 30  0 28.24  0 26  Z " fill-rule="evenodd" />
    </mask>
  </defs>
  <g transform="matrix(1 0 0 1 -261 -1429 )">
    <path d="M 0 26  L 0 4  C 0 1.75999999999999  1.31147540983606 0  2.9806259314456 0  L 497.019374068554 0  C 498.688524590164 0  500 1.75999999999999  500 4  L 500 26  C 500 28.24  498.688524590164 30  497.019374068554 30  L 48.0057591755286 30  L 2.9806259314456 30  C 1.31147540983606 30  0 28.24  0 26  Z " fill-rule="nonzero" fill="#ffffff" stroke="none" transform="matrix(1 0 0 1 261 1429 )" />
    <path d="M 0 26  L 0 4  C 0 1.75999999999999  1.31147540983606 0  2.9806259314456 0  L 497.019374068554 0  C 498.688524590164 0  500 1.75999999999999  500 4  L 500 26  C 500 28.24  498.688524590164 30  497.019374068554 30  L 48.0057591755286 30  L 2.9806259314456 30  C 1.31147540983606 30  0 28.24  0 26  Z " stroke-width="2" stroke="#d9d9d9" fill="none" transform="matrix(1 0 0 1 261 1429 )" mask="url(#clip7)" />
  </g>
</svg>