<?xml version="1.0" encoding="utf-8"?>
<svg version="1.1" xmlns:xlink="http://www.w3.org/1999/xlink" width="12px" height="12px" viewBox="500 1584  12 12" xmlns="http://www.w3.org/2000/svg">
  <path d="M 506 1584  C 509.36 1584  512 1586.64  512 1590  C 512 1593.36  509.36 1596  506 1596  C 502.64 1596  500 1593.36  500 1590  C 500 1586.64  502.64 1584  506 1584  Z " fill-rule="nonzero" fill="#ffffff" stroke="none" />
  <path d="M 506 1584.5  C 509.08 1584.5  511.5 1586.92  511.5 1590  C 511.5 1593.08  509.08 1595.5  506 1595.5  C 502.92 1595.5  500.5 1593.08  500.5 1590  C 500.5 1586.92  502.92 1584.5  506 1584.5  Z " stroke-width="1" stroke="#797979" fill="none" />
  <path d="M 506 1593  C 504.32 1593  503 1591.68  503 1590  C 503 1588.32  504.32 1587  506 1587  C 507.68 1587  509 1588.32  509 1590  C 509 1591.68  507.68 1593  506 1593  " fill-rule="nonzero" fill="#797979" stroke="none" />
</svg>