<?xml version="1.0" encoding="utf-8"?>
<svg version="1.1" xmlns:xlink="http://www.w3.org/1999/xlink" width="12px" height="12px" viewBox="255 1637  12 12" xmlns="http://www.w3.org/2000/svg">
  <path d="M 261 1637  C 264.36 1637  267 1639.64  267 1643  C 267 1646.36  264.36 1649  261 1649  C 257.64 1649  255 1646.36  255 1643  C 255 1639.64  257.64 1637  261 1637  Z " fill-rule="nonzero" fill="#f0f0f0" stroke="none" />
  <path d="M 261 1637.5  C 264.08 1637.5  266.5 1639.92  266.5 1643  C 266.5 1646.08  264.08 1648.5  261 1648.5  C 257.92 1648.5  255.5 1646.08  255.5 1643  C 255.5 1639.92  257.92 1637.5  261 1637.5  Z " stroke-width="1" stroke="#797979" fill="none" />
  <path d="M 261 1646  C 259.32 1646  258 1644.68  258 1643  C 258 1641.32  259.32 1640  261 1640  C 262.68 1640  264 1641.32  264 1643  C 264 1644.68  262.68 1646  261 1646  " fill-rule="nonzero" fill="#797979" stroke="none" />
</svg>