<?xml version="1.0" encoding="utf-8"?>
<svg version="1.1" xmlns:xlink="http://www.w3.org/1999/xlink" width="12px" height="12px" viewBox="255 1584  12 12" xmlns="http://www.w3.org/2000/svg">
  <path d="M 261 1584  C 264.36 1584  267 1586.64  267 1590  C 267 1593.36  264.36 1596  261 1596  C 257.64 1596  255 1593.36  255 1590  C 255 1586.64  257.64 1584  261 1584  Z " fill-rule="nonzero" fill="#ffffff" stroke="none" />
  <path d="M 261 1584.5  C 264.08 1584.5  266.5 1586.92  266.5 1590  C 266.5 1593.08  264.08 1595.5  261 1595.5  C 257.92 1595.5  255.5 1593.08  255.5 1590  C 255.5 1586.92  257.92 1584.5  261 1584.5  Z " stroke-width="1" stroke="#797979" fill="none" />
  <path d="M 261 1593  C 259.32 1593  258 1591.68  258 1590  C 258 1588.32  259.32 1587  261 1587  C 262.68 1587  264 1588.32  264 1590  C 264 1591.68  262.68 1593  261 1593  " fill-rule="nonzero" fill="#797979" stroke="none" />
</svg>