<?xml version="1.0" encoding="utf-8"?>
<svg version="1.1" xmlns:xlink="http://www.w3.org/1999/xlink" width="39px" height="39px" xmlns="http://www.w3.org/2000/svg">
  <g transform="matrix(1 0 0 1 -1162 -313 )">
    <path d="M 1181.5 313  C 1192.42 313  1201 321.58  1201 332.5  C 1201 343.42  1192.42 352  1181.5 352  C 1170.58 352  1162 343.42  1162 332.5  C 1162 321.58  1170.58 313  1181.5 313  Z " fill-rule="nonzero" fill="#ffffff" stroke="none" />
    <path d="M 1181.5 313.5  C 1192.14 313.5  1200.5 321.86  1200.5 332.5  C 1200.5 343.14  1192.14 351.5  1181.5 351.5  C 1170.86 351.5  1162.5 343.14  1162.5 332.5  C 1162.5 321.86  1170.86 313.5  1181.5 313.5  Z " stroke-width="1" stroke="#797979" fill="none" />
  </g>
</svg>