<?xml version="1.0" encoding="utf-8"?>
<svg version="1.1" xmlns:xlink="http://www.w3.org/1999/xlink" width="73px" height="70px" xmlns="http://www.w3.org/2000/svg">
  <g transform="matrix(1 0 0 1 -230 -1394 )">
    <path d="M 230 1394  L 303 1394  L 303 1464  L 230 1464  L 230 1394  " fill-rule="nonzero" fill="#cccccc" stroke="none" />
    <path d="M 235 1399  L 298 1399  L 298 1459  L 235 1459  L 235 1399  " fill-rule="nonzero" fill="#ffffff" stroke="none" />
    <path d="M 273.21 1415  C 270.27 1415  267.96 1412.69  267.96 1409.75  C 267.96 1406.81  270.27 1404.5  273.21 1404.5  C 276.15 1404.5  278.46 1406.81  278.46 1409.75  C 278.46 1412.69  276.15 1415  273.21 1415  " fill-rule="nonzero" fill="#cccccc" stroke="none" />
    <path d="M 237 1457  L 237 1426.2  L 251.75 1412.2  L 272.4 1424.78082191781  L 284.2 1420.6  L 296 1424.78082191781  L 296 1457  L 237 1457  " fill-rule="nonzero" fill="#169bd5" stroke="none" />
  </g>
</svg>