<?xml version="1.0" encoding="utf-8"?>
<svg version="1.1" xmlns:xlink="http://www.w3.org/1999/xlink" width="12px" height="12px" viewBox="230 1483  12 12" xmlns="http://www.w3.org/2000/svg">
  <path d="M 236 1483  C 239.36 1483  242 1485.64  242 1489  C 242 1492.36  239.36 1495  236 1495  C 232.64 1495  230 1492.36  230 1489  C 230 1485.64  232.64 1483  236 1483  Z " fill-rule="nonzero" fill="#f0f0f0" stroke="none" />
  <path d="M 236 1483.5  C 239.08 1483.5  241.5 1485.92  241.5 1489  C 241.5 1492.08  239.08 1494.5  236 1494.5  C 232.92 1494.5  230.5 1492.08  230.5 1489  C 230.5 1485.92  232.92 1483.5  236 1483.5  Z " stroke-width="1" stroke="#797979" fill="none" />
  <path d="M 236 1492  C 234.32 1492  233 1490.68  233 1489  C 233 1487.32  234.32 1486  236 1486  C 237.68 1486  239 1487.32  239 1489  C 239 1490.68  237.68 1492  236 1492  " fill-rule="nonzero" fill="#797979" stroke="none" />
</svg>