<?xml version="1.0" encoding="utf-8"?>
<svg version="1.1" xmlns:xlink="http://www.w3.org/1999/xlink" width="12px" height="12px" viewBox="182 2864  12 12" xmlns="http://www.w3.org/2000/svg">
  <path d="M 188 2864  C 191.36 2864  194 2866.64  194 2870  C 194 2873.36  191.36 2876  188 2876  C 184.64 2876  182 2873.36  182 2870  C 182 2866.64  184.64 2864  188 2864  Z " fill-rule="nonzero" fill="#ffffff" stroke="none" />
  <path d="M 188 2864.5  C 191.08 2864.5  193.5 2866.92  193.5 2870  C 193.5 2873.08  191.08 2875.5  188 2875.5  C 184.92 2875.5  182.5 2873.08  182.5 2870  C 182.5 2866.92  184.92 2864.5  188 2864.5  Z " stroke-width="1" stroke="#797979" fill="none" />
  <path d="M 188 2873  C 186.32 2873  185 2871.68  185 2870  C 185 2868.32  186.32 2867  188 2867  C 189.68 2867  191 2868.32  191 2870  C 191 2871.68  189.68 2873  188 2873  " fill-rule="nonzero" fill="#797979" stroke="none" />
</svg>