<?xml version="1.0" encoding="utf-8"?>
<svg version="1.1" xmlns:xlink="http://www.w3.org/1999/xlink" width="12px" height="12px" viewBox="238 1774  12 12" xmlns="http://www.w3.org/2000/svg">
  <path d="M 244 1774  C 247.36 1774  250 1776.64  250 1780  C 250 1783.36  247.36 1786  244 1786  C 240.64 1786  238 1783.36  238 1780  C 238 1776.64  240.64 1774  244 1774  Z " fill-rule="nonzero" fill="#ffffff" stroke="none" />
  <path d="M 244 1774.5  C 247.08 1774.5  249.5 1776.92  249.5 1780  C 249.5 1783.08  247.08 1785.5  244 1785.5  C 240.92 1785.5  238.5 1783.08  238.5 1780  C 238.5 1776.92  240.92 1774.5  244 1774.5  Z " stroke-width="1" stroke="#797979" fill="none" />
  <path d="M 244 1783  C 242.32 1783  241 1781.68  241 1780  C 241 1778.32  242.32 1777  244 1777  C 245.68 1777  247 1778.32  247 1780  C 247 1781.68  245.68 1783  244 1783  " fill-rule="nonzero" fill="#797979" stroke="none" />
</svg>