<?xml version="1.0" encoding="utf-8"?>
<svg version="1.1" xmlns:xlink="http://www.w3.org/1999/xlink" width="12px" height="12px" viewBox="508 1774  12 12" xmlns="http://www.w3.org/2000/svg">
  <path d="M 514 1774  C 517.36 1774  520 1776.64  520 1780  C 520 1783.36  517.36 1786  514 1786  C 510.64 1786  508 1783.36  508 1780  C 508 1776.64  510.64 1774  514 1774  Z " fill-rule="nonzero" fill="#f0f0f0" stroke="none" />
  <path d="M 514 1774.5  C 517.08 1774.5  519.5 1776.92  519.5 1780  C 519.5 1783.08  517.08 1785.5  514 1785.5  C 510.92 1785.5  508.5 1783.08  508.5 1780  C 508.5 1776.92  510.92 1774.5  514 1774.5  Z " stroke-width="1" stroke="#797979" fill="none" />
  <path d="M 514 1783  C 512.32 1783  511 1781.68  511 1780  C 511 1778.32  512.32 1777  514 1777  C 515.68 1777  517 1778.32  517 1780  C 517 1781.68  515.68 1783  514 1783  " fill-rule="nonzero" fill="#797979" stroke="none" />
</svg>