<?xml version="1.0" encoding="utf-8"?>
<svg version="1.1" xmlns:xlink="http://www.w3.org/1999/xlink" width="32px" height="25px" xmlns="http://www.w3.org/2000/svg">
  <g transform="matrix(1 0 0 1 -1903 -197 )">
    <path d="M 14.9237668161435 18.75  L 15.9282511210762 18.75  L 18.0089686098655 16.6903409090909  L 15.2825112107623 13.9914772727273  L 13.2017937219731 16.0511363636364  L 13.2017937219731 17.0454545454545  L 14.9237668161435 17.0454545454545  L 14.9237668161435 18.75  Z M 23.8026905829596 6.55184659090909  C 24.0059790732437 6.35061553030303  24.0119581464873 6.15530303030303  23.8206278026906 5.96590909090909  C 23.6292974588939 5.77651515151515  23.4319880418535 5.78243371212121  23.2286995515695 5.98366477272727  L 16.9506726457399 12.1981534090909  C 16.7473841554559 12.399384469697  16.7414050822123 12.594696969697  16.932735426009 12.7840909090909  C 17.1240657698057 12.9734848484848  17.321375186846 12.9675662878788  17.52466367713 12.7663352272727  L 23.8026905829596 6.55184659090909  Z M 24.8968609865471 15.9978693181818  C 25.136023916293 16.0925662878788  25.2556053811659 16.2642045454545  25.2556053811659 16.5127840909091  L 25.2556053811659 19.8863636363636  C 25.2556053811659 21.2949810606061  24.7503736920777 22.4994081439394  23.7399103139013 23.4996448863636  C 22.729446935725 24.4998816287879  21.5127055306428 25  20.0896860986547 25  L 5.16591928251121 25  C 3.74289985052317 25  2.52615844544096 24.4998816287879  1.51569506726457 23.4996448863636  C 0.505231689088191 22.4994081439394  0 21.2949810606061  0 19.8863636363636  L 0 5.11363636363637  C 0 3.70501893939394  0.505231689088191 2.50059185606061  1.51569506726457 1.50035511363636  C 2.52615844544096 0.500118371212119  3.74289985052317 0  5.16591928251121 0  L 20.0896860986547 0  C 20.8430493273543 0  21.542600896861 0.147964015151514  22.1883408071749 0.443892045454544  C 22.3677130044843 0.526751893939392  22.47533632287 0.662878787878787  22.5112107623318 0.852272727272727  C 22.5470852017937 1.05350378787879  22.4932735426009 1.22514204545454  22.3497757847534 1.3671875  L 21.4708520179372 2.23721590909091  C 21.3034379671151 2.40293560606061  21.1121076233184 2.45028409090909  20.8968609865471 2.37926136363636  C 20.6218236173393 2.30823863636364  20.3527653213752 2.27272727272727  20.0896860986547 2.27272727272727  L 5.16591928251121 2.27272727272727  C 4.37668161434978 2.27272727272727  3.70104633781764 2.55089962121212  3.1390134529148 3.10724431818182  C 2.57698056801196 3.66358901515151  2.29596412556054 4.33238636363637  2.29596412556054 5.11363636363637  L 2.29596412556054 19.8863636363636  C 2.29596412556054 20.6676136363636  2.57698056801196 21.3364109848485  3.1390134529148 21.8927556818182  C 3.70104633781764 22.4491003787879  4.37668161434978 22.7272727272727  5.16591928251121 22.7272727272727  L 20.0896860986547 22.7272727272727  C 20.8789237668161 22.7272727272727  21.5545590433483 22.4491003787879  22.1165919282511 21.8927556818182  C 22.678624813154 21.3364109848485  22.9596412556054 20.6676136363636  22.9596412556054 19.8863636363636  L 22.9596412556054 17.6491477272727  C 22.9596412556054 17.4952651515151  23.0134529147982 17.3650568181818  23.1210762331839 17.2585227272727  L 24.2690582959641 16.1221590909091  C 24.4484304932735 15.9446022727273  24.6576980568012 15.9031723484848  24.8968609865471 15.9978693181818  Z M 11.4798206278027 15.3409090909091  L 23.5336322869955 3.40909090909091  L 28.6995515695067 8.52272727272727  L 16.6457399103139 20.4545454545455  L 11.4798206278027 20.4545454545455  L 11.4798206278027 15.3409090909091  Z M 32 4.54545454545454  C 32 5.01893939393939  31.8325859491779 5.42140151515151  31.4977578475336 5.75284090909091  L 29.847533632287 7.38636363636363  L 24.6816143497758 2.27272727272727  L 26.3318385650224 0.639204545454544  C 26.6666666666667 0.307765151515149  27.0732436472347 0.142045454545456  27.5515695067265 0.142045454545456  C 28.0298953662182 0.142045454545456  28.4364723467862 0.307765151515149  28.7713004484305 0.639204545454544  L 31.4977578475336 3.33806818181818  C 31.8325859491779 3.66950757575757  32 4.0719696969697  32 4.54545454545454  Z " fill-rule="nonzero" fill="#000000" stroke="none" transform="matrix(1 0 0 1 1903 197 )" />
  </g>
</svg>