<?xml version="1.0" encoding="utf-8"?>
<svg version="1.1" xmlns:xlink="http://www.w3.org/1999/xlink" width="12px" height="12px" viewBox="603 1705  12 12" xmlns="http://www.w3.org/2000/svg">
  <path d="M 609 1705  C 612.36 1705  615 1707.64  615 1711  C 615 1714.36  612.36 1717  609 1717  C 605.64 1717  603 1714.36  603 1711  C 603 1707.64  605.64 1705  609 1705  Z " fill-rule="nonzero" fill="#ffffff" stroke="none" />
  <path d="M 609 1705.5  C 612.08 1705.5  614.5 1707.92  614.5 1711  C 614.5 1714.08  612.08 1716.5  609 1716.5  C 605.92 1716.5  603.5 1714.08  603.5 1711  C 603.5 1707.92  605.92 1705.5  609 1705.5  Z " stroke-width="1" stroke="#797979" fill="none" />
  <path d="M 609 1714  C 607.32 1714  606 1712.68  606 1711  C 606 1709.32  607.32 1708  609 1708  C 610.68 1708  612 1709.32  612 1711  C 612 1712.68  610.68 1714  609 1714  " fill-rule="nonzero" fill="#797979" stroke="none" />
</svg>