<?xml version="1.0" encoding="utf-8"?>
<svg version="1.1" xmlns:xlink="http://www.w3.org/1999/xlink" width="73px" height="70px" xmlns="http://www.w3.org/2000/svg">
  <g transform="matrix(1 0 0 1 -230 -1615 )">
    <path d="M 230 1615  L 303 1615  L 303 1685  L 230 1685  L 230 1615  " fill-rule="nonzero" fill="#cccccc" stroke="none" />
    <path d="M 235 1620  L 298 1620  L 298 1680  L 235 1680  L 235 1620  " fill-rule="nonzero" fill="#ffffff" stroke="none" />
    <path d="M 273.21 1636  C 270.27 1636  267.96 1633.69  267.96 1630.75  C 267.96 1627.81  270.27 1625.5  273.21 1625.5  C 276.15 1625.5  278.46 1627.81  278.46 1630.75  C 278.46 1633.69  276.15 1636  273.21 1636  " fill-rule="nonzero" fill="#cccccc" stroke="none" />
    <path d="M 237 1678  L 237 1647.2  L 251.75 1633.2  L 272.4 1645.78082191781  L 284.2 1641.6  L 296 1645.78082191781  L 296 1678  L 237 1678  " fill-rule="nonzero" fill="#169bd5" stroke="none" />
  </g>
</svg>