<?xml version="1.0" encoding="utf-8"?>
<svg version="1.1" xmlns:xlink="http://www.w3.org/1999/xlink" width="12px" height="12px" viewBox="474 1705  12 12" xmlns="http://www.w3.org/2000/svg">
  <path d="M 480 1705  C 483.36 1705  486 1707.64  486 1711  C 486 1714.36  483.36 1717  480 1717  C 476.64 1717  474 1714.36  474 1711  C 474 1707.64  476.64 1705  480 1705  Z " fill-rule="nonzero" fill="#f0f0f0" stroke="none" />
  <path d="M 480 1705.5  C 483.08 1705.5  485.5 1707.92  485.5 1711  C 485.5 1714.08  483.08 1716.5  480 1716.5  C 476.92 1716.5  474.5 1714.08  474.5 1711  C 474.5 1707.92  476.92 1705.5  480 1705.5  Z " stroke-width="1" stroke="#797979" fill="none" />
  <path d="M 480 1714  C 478.32 1714  477 1712.68  477 1711  C 477 1709.32  478.32 1708  480 1708  C 481.68 1708  483 1709.32  483 1711  C 483 1712.68  481.68 1714  480 1714  " fill-rule="nonzero" fill="#797979" stroke="none" />
</svg>