<?xml version="1.0" encoding="utf-8"?>
<svg version="1.1" xmlns:xlink="http://www.w3.org/1999/xlink" width="12px" height="12px" viewBox="756 1705  12 12" xmlns="http://www.w3.org/2000/svg">
  <path d="M 762 1705  C 765.36 1705  768 1707.64  768 1711  C 768 1714.36  765.36 1717  762 1717  C 758.64 1717  756 1714.36  756 1711  C 756 1707.64  758.64 1705  762 1705  Z " fill-rule="nonzero" fill="#ffffff" stroke="none" />
  <path d="M 762 1705.5  C 765.08 1705.5  767.5 1707.92  767.5 1711  C 767.5 1714.08  765.08 1716.5  762 1716.5  C 758.92 1716.5  756.5 1714.08  756.5 1711  C 756.5 1707.92  758.92 1705.5  762 1705.5  Z " stroke-width="1" stroke="#797979" fill="none" />
  <path d="M 762 1714  C 760.32 1714  759 1712.68  759 1711  C 759 1709.32  760.32 1708  762 1708  C 763.68 1708  765 1709.32  765 1711  C 765 1712.68  763.68 1714  762 1714  " fill-rule="nonzero" fill="#797979" stroke="none" />
</svg>