<?xml version="1.0" encoding="utf-8"?>
<svg version="1.1" xmlns:xlink="http://www.w3.org/1999/xlink" width="12px" height="12px" viewBox="204 1705  12 12" xmlns="http://www.w3.org/2000/svg">
  <path d="M 210 1705  C 213.36 1705  216 1707.64  216 1711  C 216 1714.36  213.36 1717  210 1717  C 206.64 1717  204 1714.36  204 1711  C 204 1707.64  206.64 1705  210 1705  Z " fill-rule="nonzero" fill="#ffffff" stroke="none" />
  <path d="M 210 1705.5  C 213.08 1705.5  215.5 1707.92  215.5 1711  C 215.5 1714.08  213.08 1716.5  210 1716.5  C 206.92 1716.5  204.5 1714.08  204.5 1711  C 204.5 1707.92  206.92 1705.5  210 1705.5  Z " stroke-width="1" stroke="#797979" fill="none" />
  <path d="M 210 1714  C 208.32 1714  207 1712.68  207 1711  C 207 1709.32  208.32 1708  210 1708  C 211.68 1708  213 1709.32  213 1711  C 213 1712.68  211.68 1714  210 1714  " fill-rule="nonzero" fill="#797979" stroke="none" />
</svg>