<?xml version="1.0" encoding="utf-8"?>
<svg version="1.1" xmlns:xlink="http://www.w3.org/1999/xlink" width="28px" height="27px" xmlns="http://www.w3.org/2000/svg">
  <g transform="matrix(1 0 0 1 -1167 -13 )">
    <path d="M 14 25.7946428571429  C 14.1794871794872 25.7946428571429  14.2692307692308 25.7142857142857  14.2692307692308 25.5535714285714  C 14.2692307692308 25.3928571428571  14.1794871794872 25.3125  14 25.3125  C 13.338141025641 25.3125  12.7688301282051 25.0990513392857  12.2920673076923 24.6721540178571  C 11.8153044871795 24.2452566964286  11.5769230769231 23.7354910714286  11.5769230769231 23.1428571428571  C 11.5769230769231 22.9821428571429  11.4871794871795 22.9017857142857  11.3076923076923 22.9017857142857  C 11.1282051282051 22.9017857142857  11.0384615384615 22.9821428571429  11.0384615384615 23.1428571428571  C 11.0384615384615 23.8761160714286  11.3273237179487 24.5013950892857  11.9050480769231 25.0186941964286  C 12.4827724358974 25.5359933035714  13.1810897435897 25.7946428571429  14 25.7946428571429  Z M 7.53846153846154 8.67857142857143  C 7.53846153846154 14.0223214285714  6.04647435897436 18.2008928571429  3.0625 21  L 24.9375 21  C 21.9535256410256 18.2008928571429  20.4615384615385 14.0223214285714  20.4615384615385 8.67857142857143  C 20.4615384615385 8.16629464285714  20.3269230769231 7.63895089285714  20.0576923076923 7.09654017857143  C 19.7884615384615 6.55412946428571  19.4014423076923 6.03683035714285  18.8966346153846 5.54464285714286  C 18.3918269230769 5.05245535714286  17.7103365384615 4.64815848214286  16.8521634615385 4.33175223214286  C 15.9939903846154 4.01534598214286  15.0432692307692 3.85714285714286  14 3.85714285714286  C 12.9567307692308 3.85714285714286  12.0060096153846 4.01534598214286  11.1478365384615 4.33175223214286  C 10.2896634615385 4.64815848214286  9.60817307692308 5.05245535714286  9.10336538461538 5.54464285714286  C 8.59855769230769 6.03683035714285  8.21153846153846 6.55412946428571  7.94230769230769 7.09654017857143  C 7.67307692307692 7.63895089285714  7.53846153846154 8.16629464285714  7.53846153846154 8.67857142857143  Z M 26.46875 19.8883928571429  C 26.9286858974359 20.3504464285714  27.4391025641026 20.7924107142857  28 21.2142857142857  C 28 21.7366071428571  27.786858974359 22.1886160714286  27.3605769230769 22.5703125  C 26.9342948717949 22.9520089285714  26.4294871794872 23.1428571428571  25.8461538461538 23.1428571428571  L 18.3076923076923 23.1428571428571  C 18.3076923076923 24.2075892857143  17.8870192307692 25.1166294642857  17.0456730769231 25.8699776785714  C 16.2043269230769 26.6233258928571  15.1891025641026 27  14 27  C 12.8108974358974 27  11.7956730769231 26.6233258928571  10.9543269230769 25.8699776785714  C 10.1129807692308 25.1166294642857  9.69230769230769 24.2075892857143  9.69230769230769 23.1428571428571  L 2.15384615384615 23.1428571428571  C 1.57051282051282 23.1428571428571  1.06570512820513 22.9520089285714  0.639423076923077 22.5703125  C 0.213141025641026 22.1886160714286  0 21.7366071428571  0 21.2142857142857  C 0.560897435897436 20.7924107142857  1.0713141025641 20.3504464285714  1.53125 19.8883928571429  C 1.9911858974359 19.4263392857143  2.46794871794872 18.826171875  2.96153846153846 18.087890625  C 3.45512820512821 17.349609375  3.8729967948718 16.5535714285714  4.21514423076923 15.6997767857143  C 4.55729166666667 14.8459821428571  4.83774038461539 13.8113839285714  5.05649038461539 12.5959821428571  C 5.27524038461539 11.3805803571429  5.38461538461539 10.0747767857143  5.38461538461539 8.67857142857143  C 5.38461538461539 7.15178571428571  6.04086538461539 5.73297991071429  7.35336538461538 4.42215401785714  C 8.66586538461538 3.111328125  10.3878205128205 2.31529017857143  12.5192307692308 2.03404017857143  C 12.4294871794872 1.84319196428571  12.3846153846154 1.64732142857143  12.3846153846154 1.44642857142857  C 12.3846153846154 1.04464285714286  12.5416666666667 0.703124999999999  12.8557692307692 0.421875  C 13.1698717948718 0.140625000000001  13.5512820512821 0  14 0  C 14.448717948718 0  14.8301282051282 0.140625000000001  15.1442307692308 0.421875  C 15.4583333333333 0.703124999999999  15.6153846153846 1.04464285714286  15.6153846153846 1.44642857142857  C 15.6153846153846 1.64732142857143  15.5705128205128 1.84319196428571  15.4807692307692 2.03404017857143  C 17.6121794871795 2.31529017857143  19.3341346153846 3.111328125  20.6466346153846 4.42215401785714  C 21.9591346153846 5.73297991071429  22.6153846153846 7.15178571428571  22.6153846153846 8.67857142857143  C 22.6153846153846 10.0747767857143  22.7247596153846 11.3805803571429  22.9435096153846 12.5959821428571  C 23.1622596153846 13.8113839285714  23.4427083333333 14.8459821428571  23.7848557692308 15.6997767857143  C 24.1270032051282 16.5535714285714  24.5448717948718 17.349609375  25.0384615384615 18.087890625  C 25.5320512820513 18.826171875  26.0088141025641 19.4263392857143  26.46875 19.8883928571429  Z " fill-rule="nonzero" fill="#000000" stroke="none" transform="matrix(1 0 0 1 1167 13 )" />
  </g>
</svg>