<?xml version="1.0" encoding="utf-8"?>
<svg version="1.1" xmlns:xlink="http://www.w3.org/1999/xlink" width="83px" height="83px" xmlns="http://www.w3.org/2000/svg">
  <g transform="matrix(1 0 0 1 -801 -1158 )">
    <path d="M 842.5 1158  C 865.74 1158  884 1176.26  884 1199.5  C 884 1222.74  865.74 1241  842.5 1241  C 819.26 1241  801 1222.74  801 1199.5  C 801 1176.26  819.26 1158  842.5 1158  Z " fill-rule="nonzero" fill="#ffffff" stroke="none" />
    <path d="M 842.5 1158.5  C 865.46 1158.5  883.5 1176.54  883.5 1199.5  C 883.5 1222.46  865.46 1240.5  842.5 1240.5  C 819.54 1240.5  801.5 1222.46  801.5 1199.5  C 801.5 1176.54  819.54 1158.5  842.5 1158.5  Z " stroke-width="1" stroke="#797979" fill="none" />
  </g>
</svg>