<?xml version="1.0" encoding="utf-8"?>
<svg version="1.1" xmlns:xlink="http://www.w3.org/1999/xlink" width="39px" height="39px" xmlns="http://www.w3.org/2000/svg">
  <g transform="matrix(1 0 0 1 -167 -260 )">
    <path d="M 186.5 260  C 197.42 260  206 268.58  206 279.5  C 206 290.42  197.42 299  186.5 299  C 175.58 299  167 290.42  167 279.5  C 167 268.58  175.58 260  186.5 260  Z " fill-rule="nonzero" fill="#ffffff" stroke="none" />
    <path d="M 186.5 260.5  C 197.14 260.5  205.5 268.86  205.5 279.5  C 205.5 290.14  197.14 298.5  186.5 298.5  C 175.86 298.5  167.5 290.14  167.5 279.5  C 167.5 268.86  175.86 260.5  186.5 260.5  Z " stroke-width="1" stroke="#797979" fill="none" />
  </g>
</svg>