<svg t="1641894724366" class="icon" viewBox="0 0 1024 1024" version="1.1" xmlns="http://www.w3.org/2000/svg" p-id="2257" width="150" height="150"><path d="M865.44219 382.605776V224.815429c-31.312481 30.493854-125.352253 121.975417-174.060557 169.353453 47.889677 58.531828 76.643949 132.719896 76.643949 213.559308 0 188.079544-155.334466 341.162786-346.279204 341.162786S75.467173 795.807735 75.467173 607.72819s155.334466-341.162786 346.279205-341.162786c74.69971 0 143.77136 23.637854 200.461277 63.44359C670.301989 284.268212 767.104627 192.377336 800.054362 160.962526H627.017088v-94.1421h330.008994V382.503448h-91.583892z m-694.400319 225.122414c0 136.199061 112.458879 247.020686 250.806835 247.020686s250.806835-110.821625 250.806835-247.020686-112.663536-247.020686-250.909163-247.020685-250.704507 110.821625-250.704507 247.020685z" p-id="2258"></path></svg>