<?xml version="1.0" encoding="utf-8"?>
<svg version="1.1" xmlns:xlink="http://www.w3.org/1999/xlink" width="57px" height="38px" xmlns="http://www.w3.org/2000/svg">
  <g transform="matrix(1 0 0 1 -471 -504 )">
    <path d="M 471 504  L 528 504  L 528 542  L 471 542  L 471 504  " fill-rule="nonzero" fill="#cccccc" stroke="none" />
    <path d="M 474 507  L 525 507  L 525 539  L 474 539  L 474 507  " fill-rule="nonzero" fill="#ffffff" stroke="none" />
    <path d="M 503.49 515.4  C 501.894 515.4  500.64 514.146  500.64 512.55  C 500.64 510.954  501.894 509.7  503.49 509.7  C 505.086 509.7  506.34 510.954  506.34 512.55  C 506.34 514.146  505.086 515.4  503.49 515.4  " fill-rule="nonzero" fill="#cccccc" stroke="none" />
    <path d="M 475 538  L 475 521.5  L 487.25 514  L 504.4 526  L 514.2 518.5  L 524 526  L 524 538  L 475 538  " fill-rule="nonzero" fill="#169bd5" stroke="none" />
  </g>
</svg>