<?xml version="1.0" encoding="utf-8"?>
<svg version="1.1" xmlns:xlink="http://www.w3.org/1999/xlink" width="16px" height="16px" xmlns="http://www.w3.org/2000/svg">
  <g transform="matrix(1 0 0 1 -254 -1703 )">
    <path d="M 262 1703  C 266.48 1703  270 1706.52  270 1711  C 270 1715.48  266.48 1719  262 1719  C 257.52 1719  254 1715.48  254 1711  C 254 1706.52  257.52 1703  262 1703  Z " fill-rule="nonzero" fill="#ffffff" stroke="none" />
    <path d="M 262 1703.5  C 266.2 1703.5  269.5 1706.8  269.5 1711  C 269.5 1715.2  266.2 1718.5  262 1718.5  C 257.8 1718.5  254.5 1715.2  254.5 1711  C 254.5 1706.8  257.8 1703.5  262 1703.5  Z " stroke-width="1" stroke="#797979" fill="none" />
  </g>
</svg>