<?xml version="1.0" encoding="utf-8"?>
<svg version="1.1" xmlns:xlink="http://www.w3.org/1999/xlink" width="532px" height="30px" xmlns="http://www.w3.org/2000/svg">
  <defs>
    <mask fill="white" id="clip6">
      <path d="M 0 26  L 0 4  C 0 1.75999999999999  1.39540983606557 0  3.17138599105812 0  L 528.828614008942 0  C 530.604590163934 0  532 1.75999999999999  532 4  L 532 26  C 532 28.24  530.604590163934 30  528.828614008942 30  L 51.0781277627624 30  L 3.17138599105812 30  C 1.39540983606557 30  0 28.24  0 26  Z " fill-rule="evenodd" />
    </mask>
  </defs>
  <g transform="matrix(1 0 0 1 -261 -1429 )">
    <path d="M 0 26  L 0 4  C 0 1.75999999999999  1.39540983606557 0  3.17138599105812 0  L 528.828614008942 0  C 530.604590163934 0  532 1.75999999999999  532 4  L 532 26  C 532 28.24  530.604590163934 30  528.828614008942 30  L 51.0781277627624 30  L 3.17138599105812 30  C 1.39540983606557 30  0 28.24  0 26  Z " fill-rule="nonzero" fill="#ffffff" stroke="none" transform="matrix(1 0 0 1 261 1429 )" />
    <path d="M 0 26  L 0 4  C 0 1.75999999999999  1.39540983606557 0  3.17138599105812 0  L 528.828614008942 0  C 530.604590163934 0  532 1.75999999999999  532 4  L 532 26  C 532 28.24  530.604590163934 30  528.828614008942 30  L 51.0781277627624 30  L 3.17138599105812 30  C 1.39540983606557 30  0 28.24  0 26  Z " stroke-width="2" stroke="#d9d9d9" fill="none" transform="matrix(1 0 0 1 261 1429 )" mask="url(#clip6)" />
  </g>
</svg>