<?xml version="1.0" encoding="utf-8"?>
<svg version="1.1" xmlns:xlink="http://www.w3.org/1999/xlink" width="12px" height="12px" viewBox="638 1555  12 12" xmlns="http://www.w3.org/2000/svg">
  <path d="M 644 1555  C 647.36 1555  650 1557.64  650 1561  C 650 1564.36  647.36 1567  644 1567  C 640.64 1567  638 1564.36  638 1561  C 638 1557.64  640.64 1555  644 1555  Z " fill-rule="nonzero" fill="#ffffff" stroke="none" />
  <path d="M 644 1555.5  C 647.08 1555.5  649.5 1557.92  649.5 1561  C 649.5 1564.08  647.08 1566.5  644 1566.5  C 640.92 1566.5  638.5 1564.08  638.5 1561  C 638.5 1557.92  640.92 1555.5  644 1555.5  Z " stroke-width="1" stroke="#797979" fill="none" />
  <path d="M 644 1564  C 642.32 1564  641 1562.68  641 1561  C 641 1559.32  642.32 1558  644 1558  C 645.68 1558  647 1559.32  647 1561  C 647 1562.68  645.68 1564  644 1564  " fill-rule="nonzero" fill="#797979" stroke="none" />
</svg>